<svg width="24" height="13" viewBox="0 0 24 13" fill="none" xmlns="http://www.w3.org/2000/svg">
<path d="M1.97705 12.1738C1.70003 12.1738 1.46419 12.0728 1.26953 11.8706C1.07487 11.661 0.977539 11.4176 0.977539 11.1406C0.977539 10.8636 1.07487 10.624 1.26953 10.4219C1.46419 10.2197 1.70003 10.1187 1.97705 10.1187H22.978C23.2625 10.1187 23.5021 10.2197 23.6968 10.4219C23.8989 10.6165 24 10.8561 24 11.1406C24 11.4176 23.8989 11.661 23.6968 11.8706C23.5021 12.0728 23.2625 12.1738 22.978 12.1738H1.97705ZM1.97705 7.09766C1.70003 7.09766 1.46419 6.99658 1.26953 6.79443C1.07487 6.59229 0.977539 6.35645 0.977539 6.08691C0.977539 5.80241 1.07487 5.55908 1.26953 5.35693C1.46419 5.1473 1.70003 5.04248 1.97705 5.04248H22.978C23.2625 5.04248 23.5021 5.1473 23.6968 5.35693C23.8989 5.55908 24 5.80241 24 6.08691C24 6.36393 23.8989 6.60352 23.6968 6.80566C23.5021 7.00033 23.2625 7.09766 22.978 7.09766H1.97705ZM1.97705 2.03271C1.70003 2.03271 1.46419 1.93164 1.26953 1.72949C1.07487 1.52734 0.977539 1.2915 0.977539 1.02197C0.977539 0.737467 1.07487 0.497884 1.26953 0.303223C1.46419 0.101074 1.70003 0 1.97705 0H22.978C23.2625 0 23.5021 0.101074 23.6968 0.303223C23.8989 0.497884 24 0.737467 24 1.02197C24 1.29899 23.8989 1.53857 23.6968 1.74072C23.5021 1.93538 23.2625 2.03271 22.978 2.03271H1.97705Z" fill="#A8A8A8"/>
</svg>
