<svg width="113" height="21" viewBox="0 0 113 21" fill="none" xmlns="http://www.w3.org/2000/svg">
<path d="M8.00317 15.613V13.9696H7.91118C7.45123 14.9739 6.25535 15.7957 4.59952 15.7957C2.02379 15.7957 0 13.9696 0 10.6826V9.13044C0 5.93478 1.9318 4.01739 4.59952 4.01739C7.26725 4.01739 7.63521 4.93044 8.00317 5.93478H8.09516V4.1087H10.4869V15.613C10.4869 18.9 8.09516 20.2696 5.05948 20.2696C2.02379 20.2696 0.367962 18.7174 0.183981 16.8913H2.66772C2.85171 17.713 3.77161 18.2609 5.15147 18.2609C6.53132 18.2609 8.00317 17.2565 8.00317 15.5217V15.613ZM2.48374 9.49565V10.5C2.48374 12.5087 3.67962 13.8783 5.33545 13.8783C6.99128 13.8783 8.00317 12.5087 8.00317 10.7739V9.22174C8.00317 7.48696 6.99128 6.11739 5.33545 6.11739C3.67962 6.11739 2.48374 7.48696 2.48374 9.49565Z" fill="#898989"/>
<path d="M15.9143 9.22174C15.9143 6.02609 17.8461 4.01739 21.0658 4.01739C24.2854 4.01739 25.7573 5.84348 25.7573 7.85217H23.3655C23.2735 7.12174 22.7216 6.02609 21.0658 6.02609C19.4099 6.02609 18.398 7.30435 18.398 9.22174V10.8652C18.398 12.8739 19.4099 14.0609 21.0658 14.0609C22.7216 14.0609 23.2735 13.3304 23.4575 12.4174H25.8493C25.8493 14.4261 24.2854 16.1609 21.0658 16.1609C17.8461 16.1609 15.9143 14.1522 15.9143 10.8652V9.13043V9.22174Z" fill="#898989"/>
<path d="M37.44 9.31304V10.8652C37.44 14.2435 35.2323 16.2522 32.1966 16.2522C29.1609 16.2522 26.9531 14.3348 26.9531 10.9565V9.40435C26.9531 6.2087 29.1609 4.1087 32.1966 4.1087C35.2323 4.1087 37.44 6.11739 37.44 9.40435V9.31304ZM29.4369 9.49565V10.7739C29.4369 12.7826 30.3568 14.2435 32.1966 14.2435C34.0364 14.2435 34.9563 12.7826 34.9563 10.7739V9.49565C34.9563 7.48696 33.9444 6.02609 32.1966 6.02609C30.4488 6.02609 29.4369 7.48696 29.4369 9.49565Z" fill="#898989"/>
<path d="M46.7313 6.02609H46.8232V0H49.307V15.9783H46.9152V14.0609H46.8232C46.4553 15.2478 45.0754 16.0696 43.3276 16.0696C40.5679 16.0696 38.8201 14.1522 38.8201 11.0478V9.03913C38.8201 5.93478 40.6599 4.01739 43.3276 4.01739C45.9953 4.01739 46.2713 4.74783 46.7313 5.93478V6.02609ZM41.3038 9.49565V10.7739C41.3038 12.9652 42.3157 14.1522 44.0635 14.1522C45.8113 14.1522 46.8232 12.9652 46.8232 10.9565V9.13044C46.8232 7.30435 45.6274 6.11739 43.9715 6.11739C42.3157 6.11739 41.3038 7.30435 41.3038 9.49565Z" fill="#898989"/>
<path d="M51.1467 10.9565V9.40435C51.1467 6.02609 53.3544 4.1087 56.2062 4.1087C59.0579 4.1087 61.2656 6.11739 61.2656 9.40435V10.7739H53.5384V11.3217C53.5384 13.0565 54.5503 14.2435 56.2981 14.2435C58.046 14.2435 58.5059 13.6043 58.6899 12.8739H61.0817C60.8977 14.2435 59.5178 16.1609 56.2981 16.1609C53.0785 16.1609 51.0547 14.1522 51.0547 10.8652L51.1467 10.9565ZM58.9659 9.13043V8.94783C58.9659 7.21304 57.954 6.02609 56.2981 6.02609C54.6423 6.02609 53.6304 7.21304 53.6304 8.94783V9.13043H58.8739H58.9659Z" fill="#898989"/>
<path d="M67.705 1.36956H70.0968V4.2913H72.7645V6.20869H70.0968V12.4174C70.0968 13.6957 70.5567 14.0609 71.9366 14.0609C73.3165 14.0609 72.7645 14.0609 72.9485 14.0609V15.9783C72.7645 15.9783 71.9366 16.0696 71.3847 16.0696C68.533 16.0696 67.705 15.0652 67.705 12.6913V6.20869H65.8652V4.2913H67.705V1.36956Z" fill="#898989"/>
<path d="M84.5392 9.31304V10.8652C84.5392 14.2435 82.3314 16.2522 79.2957 16.2522C76.26 16.2522 74.0522 14.3348 74.0522 10.9565V9.40435C74.0522 6.2087 76.26 4.1087 79.2957 4.1087C82.3314 4.1087 84.5392 6.11739 84.5392 9.40435V9.31304ZM76.536 9.49565V10.7739C76.536 12.7826 77.4559 14.2435 79.2957 14.2435C81.1355 14.2435 82.0554 12.7826 82.0554 10.7739V9.49565C82.0554 7.48696 81.0435 6.02609 79.2957 6.02609C77.5479 6.02609 76.536 7.48696 76.536 9.49565Z" fill="#898989"/>
<path d="M96.4061 9.31304V10.8652C96.4061 14.2435 94.1983 16.2522 91.1626 16.2522C88.1269 16.2522 85.8271 14.3348 85.8271 10.9565V9.40435C85.8271 6.2087 88.0349 4.1087 91.1626 4.1087C94.2903 4.1087 96.4061 6.11739 96.4061 9.40435V9.31304ZM88.3109 9.49565V10.7739C88.3109 12.7826 89.2308 14.2435 91.0706 14.2435C92.9104 14.2435 93.8303 12.7826 93.8303 10.7739V9.49565C93.8303 7.48696 92.8184 6.02609 91.0706 6.02609C89.3228 6.02609 88.3109 7.48696 88.3109 9.49565Z" fill="#898989"/>
<path d="M98.3379 0H100.822V15.9783H98.3379V0Z" fill="#898989"/>
<path d="M107.353 4.01739C109.929 4.01739 111.768 5.29565 111.768 7.39565H109.561C109.561 6.66522 108.825 5.84348 107.353 5.84348C105.881 5.84348 105.237 6.3913 105.237 7.48696C105.237 8.58261 106.893 8.94783 108.273 9.22174C110.481 9.58696 112.228 10.3174 112.228 12.5087C112.228 14.7 110.297 16.2522 107.353 16.2522C104.409 16.2522 102.753 14.9739 102.753 12.8739H105.145C105.237 13.787 105.973 14.4261 107.445 14.4261C108.917 14.4261 109.837 13.6957 109.837 12.7826C109.837 11.8696 108.457 11.3217 106.893 11.0478C104.685 10.5913 102.937 10.0435 102.937 7.66957C102.937 5.29565 105.145 4.01739 107.537 4.01739H107.353Z" fill="#898989"/>
</svg>
