<?xml version="1.0" encoding="iso-8859-1"?>
<!-- Generator: Adobe Illustrator 29.8.3, SVG Export Plug-In . SVG Version: 9.03 Build 0)  -->
<svg version="1.1" id="Layer_1" xmlns="http://www.w3.org/2000/svg" xmlns:xlink="http://www.w3.org/1999/xlink" x="0px" y="0px"
	 viewBox="0 0 253.8983307 79.2374039" style="enable-background:new 0 0 253.8983307 79.2374039;" xml:space="preserve">
<g>
	<path style="fill:#262626;" d="M21.0952148,78.7373047C1.847168,78.7373047,0.5,77.3901367,0.5,58.1420898v-37.046875
		C0.5,1.847168,1.847168,0.5,21.0952148,0.5h211.7080078c19.2480469,0,20.5952148,1.347168,20.5952148,20.5952148v37.046875
		c0,19.2480469-1.347168,20.5952148-20.5952148,20.5952148H21.0952148z"/>
	<path style="fill:#333333;" d="M232.8031311,1.0000019c18.9683685,0,20.0951996,1.1268334,20.0951996,20.0951996v37.0469971
		c0,18.9683647-1.1268311,20.0952034-20.0951996,20.0952034H21.0951996c-18.9683685,0-20.0952015-1.1268387-20.0952015-20.0952034
		V21.0952015c0-18.9683666,1.1268333-20.0951996,20.0952015-20.0951996H232.8031311 M232.8031311,0.0000019H21.0951996
		c-19.5641003,0-21.0952015,1.5311-21.0952015,21.0951996v37.0469971c0,19.5640984,1.5311,21.0952034,21.0952015,21.0952034
		h211.7079315c19.5641022,0,21.0951996-1.531105,21.0951996-21.0952034V21.0952015
		C253.8983307,1.5311019,252.3672333,0.0000019,232.8031311,0.0000019L232.8031311,0.0000019z"/>
</g>
<path style="fill:#828284;" d="M91.8927078,54.870903c-1.317894,0-2.5010071-0.2995186-3.5493317-0.8985634
	s-1.8607788-1.4451904-2.437355-2.5384445c-0.5765839-1.0932541-0.8648682-2.3961754-0.8648682-3.9087563v-9.4573975
	c0-1.5125809,0.2882843-2.8192444,0.8648682-3.9199867c0.5765762-1.1007423,1.3852844-1.9468918,2.4261246-2.5384464
	c1.0408325-0.5915546,2.2426682-0.8873329,3.6054916-0.8873329c1.257988,0,2.3811951,0.2770576,3.3696136,0.8311729
	c0.9884262,0.5541134,1.7634354,1.3590794,2.3250351,2.4148922c0.5616074,1.0558128,0.8573837,2.3400116,0.8873367,3.8525963
	l-0.0224686,1.7072754h-3.5268631l-0.0224686-1.7297401c-0.0449219-1.2280388-0.3219833-2.1565552-0.8311691-2.7855492
	s-1.235527-0.9434929-2.1790161-0.9434929c-0.6889038,0-1.2692261,0.1609917-1.7409744,0.4829788
	c-0.4717407,0.3219833-0.8199387,0.7787552-1.0445786,1.3703117c-0.2246399,0.5915527-0.3369598,1.2767105-0.3369598,2.0554657
	v9.6595726c0,0.7937317,0.1123199,1.4826317,0.3369598,2.0666962c0.2246399,0.5840683,0.5728378,1.0370941,1.0445786,1.3590813
	c0.4717484,0.3219872,1.0520706,0.4829788,1.7409744,0.4829788c0.9434891,0,1.6698303-0.3144989,2.1790161-0.9434929
	s0.7862473-1.5500259,0.8311691-2.7630882l0.0224686-1.7072716h3.5268631l0.0224686,1.6623459
	c-0.029953,1.4676552-0.3294754,2.7331314-0.8985672,3.7964363c-0.5690918,1.0633011-1.344101,1.8757515-2.3250351,2.437355
	S93.1806488,54.870903,91.8927078,54.870903z"/>
<path style="fill:#828284;" d="M108.8961716,54.870903c-1.407753,0-2.6582565-0.3032646-3.7589951-0.9097939
	c-1.1026154-0.6065331-1.9674835-1.467659-2.5964813-2.583374c-0.6289902-1.1157188-0.9434891-2.4523354-0.9434891-4.0098457
	v-9.1653633c0-1.5575104,0.3144989-2.8903809,0.9434891-3.9986115c0.6289978-1.1082306,1.4901199-1.9693565,2.5815048-2.583374
	c1.0932541-0.6140194,2.3512421-0.9210281,3.7739716-0.9210281c1.437706,0,2.7106705,0.3070087,3.8114166,0.9210281
	c1.1007385,0.6140175,1.9543762,1.4751434,2.5609055,2.583374s0.9060516,2.4411011,0.9060516,3.9986115v9.1653633
	c0,1.5575104-0.3070068,2.8941269-0.9210281,4.0098457c-0.6140213,1.115715-1.4676514,1.976841-2.5609055,2.583374
	C111.5993576,54.5676384,110.3338776,54.870903,108.8961716,54.870903z M108.8961716,51.5462151
	c0.7637787,0,1.407753-0.1834564,1.9319153-0.5503731c0.5241623-0.3669128,0.9210281-0.8611221,1.1905975-1.4826317
	c0.2695694-0.6215057,0.4043579-1.3515892,0.4043579-2.1902504v-9.0755043c0-0.7937317-0.1347885-1.5088387-0.4043579-2.1453247
	c-0.2695694-0.6364822-0.6664352-1.1381798-1.198082-1.5050926c-0.5316544-0.3669167-1.1756287-0.5503731-1.9244308-0.5503731
	c-0.7338257,0-1.3703079,0.1834564-1.9094467,0.5503731c-0.5391388,0.3669128-0.9360046,0.8686104-1.1980896,1.5050926
	c-0.2620773,0.6364861-0.3968658,1.351593-0.3968658,2.1453247v9.0755043c0,0.8386612,0.1347885,1.5687447,0.3968658,2.1902504
	c0.262085,0.6215096,0.6589508,1.1157188,1.1980896,1.4826317
	C107.5258636,51.3627586,108.1623459,51.5462151,108.8961716,51.5462151z"/>
<path style="fill:#828284;" d="M125.5870132,54.9382973c-1.2430115,0-2.3175507-0.3144989-3.2236023-0.9434929
	c-0.9060516-0.6289978-1.6099243-1.493866-2.1116257-2.5946083c-0.5017014-1.1007385-0.7525482-2.3924255-0.7525482-3.8750572
	v-9.3226128c0-1.4227257,0.2471085-2.695694,0.7413177-3.8188972c0.4942093-1.1232071,1.198082-1.9918213,2.1116257-2.6058388
	c0.9135437-0.6140194,1.9993057-0.92103,3.2572937-0.92103c0.7188568,0,1.3852921,0.1198101,1.9993134,0.3594265
	s1.1419296,0.5878105,1.5837173,1.0445824c0.4417877,0.456768,0.8049622,1.0296059,1.0895081,1.7185059h0.1123199V21.8261852
	h3.6841125v32.7302246h-3.6841125v-2.673233h-0.1123199c-0.2545929,0.6589508-0.6027832,1.2168083-1.0445862,1.6735802
	c-0.4417877,0.456768-0.969696,0.8012199-1.5837173,1.0333481
	C127.0396957,54.8222313,126.3507919,54.9382973,125.5870132,54.9382973z M126.8225403,51.5686798
	c0.7188492,0,1.344101-0.1759682,1.8757477-0.5279083c0.531662-0.3519363,0.9472504-0.8573799,1.2467651-1.5163269
	s0.4492798-1.4302177,0.4492798-2.3138046v-8.7160797c0-0.8835869-0.149765-1.6436234-0.4492798-2.2801056
	c-0.2995148-0.6364861-0.7151031-1.1306953-1.2467651-1.4826317c-0.5316467-0.3519402-1.1568985-0.5279083-1.8757477-0.5279083
	s-1.344101,0.1797142-1.8757553,0.5391388c-0.5316467,0.3594246-0.9397507,0.8573799-1.2242966,1.4938622
	c-0.2845459,0.6364861-0.4268188,1.381546-0.4268188,2.2351799V47.21064c0,0.8835869,0.1422729,1.6511116,0.4268188,2.3025703
	c0.2845459,0.6514626,0.6926498,1.1569023,1.2242966,1.5163307
	C125.4784393,51.3889656,126.1036911,51.5686798,126.8225403,51.5686798z"/>
<path style="fill:#828284;" d="M144.9960175,54.870903c-1.4077606,0-2.6395416-0.2995186-3.6953583-0.8985634
	c-1.0558014-0.5990448-1.8720093-1.4414482-2.4485779-2.5272141c-0.5765839-1.0857658-0.8648682-2.3250351-0.8648682-3.7178116
	v-9.839283c0-1.3778,0.2882843-2.6058388,0.8648682-3.6841164c0.5765686-1.0782776,1.3815308-1.9281693,2.4148865-2.5496769
	s2.2389221-0.9322624,3.6167297-0.9322624c1.3478394,0,2.5421906,0.2995224,3.5830231,0.8985653
	c1.0408325,0.5990448,1.8457947,1.43396,2.4148865,2.5047493s0.8536377,2.2950859,0.8536377,3.6728821v6.2450256h-11.8610535
	v-2.9652634h10.0189972l-1.7971344,2.7630882v-5.795742c0-0.8236847-0.1310272-1.5313072-0.3931122-2.12286
	c-0.262085-0.5915565-0.6252594-1.0520706-1.0895081-1.381546c-0.4642639-0.3294716-1.0108948-0.4942093-1.6398926-0.4942093
	c-0.6739197,0-1.2542419,0.1609917-1.7409668,0.4829788s-0.8536377,0.7787552-1.1007385,1.3703117
	s-0.3706512,1.3066635-0.3706512,2.1453247v9.726963c0,0.7338257,0.1310425,1.3852882,0.3931122,1.9543762
	c0.262085,0.5690918,0.6439819,1.0183754,1.1456757,1.347847c0.5016937,0.3294754,1.0670471,0.4942131,1.6960449,0.4942131
	c0.6739197,0,1.2467499-0.1535072,1.7185059-0.4605141c0.4717407-0.3070107,0.8349152-0.7300835,1.0895081-1.2692261
	c0.2545929-0.5391388,0.3818817-1.1381798,0.3818817-1.7971268l-0.0449219-0.6514587h3.6391907l-0.0449371,0.6963844
	c-0.0149689,0.9884224-0.1797028,1.9019623-0.4942017,2.7406235s-0.7600403,1.5575142-1.3366241,2.1565552
	c-0.5765686,0.5990448-1.2729645,1.0633011-2.0891571,1.3927765S146.0593109,54.870903,144.9960175,54.870903z"/>
<path style="fill:#828284;" d="M170.5152588,54.8259773c-1.9319153,0-3.3621368-0.4380531-4.2906494-1.3141518
	c-0.9285278-0.8761024-1.3927765-2.2351799-1.3927765-4.07724V34.2263794h-2.4485931v-3.1674423h2.4485931v-6.2899532h3.7964325
	v6.2899532h3.5493317v3.1674423h-3.5493317v14.8038521c0,0.8985672,0.202179,1.5650024,0.6065369,1.9993095
	c0.4043427,0.4343071,1.0108795,0.6514587,1.8195953,0.6514587c0.2545929,0,0.4904633-0.003746,0.7076111-0.0112343
	c0.2171478-0.0074844,0.4080963-0.026207,0.5728302-0.05616v3.0775871
	c-0.1946869,0.0449257-0.4492798,0.0786247-0.7637787,0.1010857
	C171.2565613,54.814743,170.9046326,54.8259773,170.5152588,54.8259773z"/>
<path style="fill:#828284;" d="M181.4777374,54.870903c-1.4077454,0-2.6619873-0.3032646-3.7627411-0.9097939
	c-1.1007385-0.6065331-1.9656067-1.467659-2.5946045-2.583374c-0.6289978-1.1157188-0.9434814-2.4523354-0.9434814-4.0098457
	v-9.1653633c0-1.5575104,0.3144836-2.8903809,0.9434814-3.9986115s1.4901276-1.9693565,2.583374-2.583374
	c1.0932617-0.6140194,2.3512421-0.9210281,3.7739716-0.9210281c1.4377136,0,2.7069244,0.3070087,3.8076782,0.9210281
	c1.1007385,0.6140175,1.9543762,1.4751434,2.5608978,2.583374c0.6065369,1.1082306,0.9098053,2.4411011,0.9098053,3.9986115
	v9.1653633c0,1.5575104-0.3070068,2.8941269-0.9210358,4.0098457c-0.6140137,1.115715-1.4676514,1.976841-2.5608978,2.583374
	C184.1809235,54.5676384,182.915451,54.870903,181.4777374,54.870903z M181.4777374,51.5462151
	c0.7637787,0,1.4077606-0.1834564,1.9319153-0.5503731c0.5241699-0.3669128,0.9210358-0.8611221,1.1905975-1.4826317
	c0.269577-0.6215057,0.4043579-1.3515892,0.4043579-2.1902504v-9.0755043c0-0.7937317-0.1347809-1.5088387-0.4043579-2.1453247
	c-0.2695618-0.6364822-0.6701813-1.1381798-1.201828-1.5050926c-0.5316467-0.3669167-1.171875-0.5503731-1.9206848-0.5503731
	c-0.7338257,0-1.3703003,0.1834564-1.9094391,0.5503731c-0.5391388,0.3669128-0.9397583,0.8686104-1.2018433,1.5050926
	c-0.2620697,0.6364861-0.3931122,1.351593-0.3931122,2.1453247v9.0755043c0,0.8386612,0.1310425,1.5687447,0.3931122,2.1902504
	c0.262085,0.6215096,0.6627045,1.1157188,1.2018433,1.4826317
	C180.1074371,51.3627586,180.7439117,51.5462151,181.4777374,51.5462151z"/>
<path style="fill:#828284;" d="M199.4041138,54.870903c-1.4077606,0-2.6620026-0.3032646-3.7627411-0.9097939
	c-1.1007385-0.6065331-1.9656067-1.467659-2.5946045-2.583374c-0.6289978-1.1157188-0.9434967-2.4523354-0.9434967-4.0098457
	v-9.1653633c0-1.5575104,0.3144989-2.8903809,0.9434967-3.9986115s1.4901123-1.9693565,2.583374-2.583374
	c1.0932465-0.6140194,2.3512421-0.9210281,3.7739716-0.9210281c1.4376984,0,2.7069244,0.3070087,3.807663,0.9210281
	c1.1007385,0.6140175,1.9543762,1.4751434,2.5609131,2.583374s0.90979,2.4411011,0.90979,3.9986115v9.1653633
	c0,1.5575104-0.3070068,2.8941269-0.9210205,4.0098457c-0.6140289,1.115715-1.4676666,1.976841-2.5609131,2.583374
	C202.1072998,54.5676384,200.8418121,54.870903,199.4041138,54.870903z M199.4041138,51.5462151
	c0.7637787,0,1.4077454-0.1834564,1.9319153-0.5503731c0.5241547-0.3669128,0.9210205-0.8611221,1.1905975-1.4826317
	c0.2695618-0.6215057,0.4043427-1.3515892,0.4043427-2.1902504v-9.0755043c0-0.7937317-0.1347809-1.5088387-0.4043427-2.1453247
	c-0.269577-0.6364822-0.6701813-1.1381798-1.201828-1.5050926c-0.531662-0.3669167-1.1718903-0.5503731-1.9206848-0.5503731
	c-0.7338257,0-1.3703156,0.1834564-1.9094543,0.5503731c-0.5391388,0.3669128-0.939743,0.8686104-1.201828,1.5050926
	c-0.262085,0.6364861-0.3931274,1.351593-0.3931274,2.1453247v9.0755043c0,0.8386612,0.1310425,1.5687447,0.3931274,2.1902504
	c0.262085,0.6215096,0.6626892,1.1157188,1.201828,1.4826317C198.0337982,51.3627586,198.6702881,51.5462151,199.4041138,51.5462151
	z"/>
<path style="fill:#828284;" d="M210.3666077,54.5564079V21.8261852h3.7290344v32.7302246H210.3666077z"/>
<path style="fill:#828284;" d="M224.4066772,54.9158325c-1.4826355,0-2.7368774-0.2733116-3.7627411-0.8199387
	s-1.8083649-1.32164-2.3475037-2.3250389c-0.5391388-1.0033951-0.8161926-2.1939964-0.8311768-3.5717926v-0.8761024h3.5942688
	l0.0224609,0.718853c0,1.1980858,0.292038,2.1191139,0.8760986,2.7630844
	c0.5840759,0.6439743,1.4302216,0.9659576,2.5384521,0.9659576c0.5840607,0,1.1082306-0.1272964,1.5724792-0.3818893
	c0.4642639-0.2545929,0.8124542-0.6102753,1.0445862-1.0670471c0.232132-0.456768,0.3481903-0.9771881,0.3481903-1.5612564
	v-0.2021751c0-0.9135399-0.2396088-1.6773224-0.7188416-2.2913399c-0.479248-0.6140213-1.3104095-1.1831093-2.4935303-1.7072754
	l-1.7746582-0.7188492c-1.0483246-0.4492836-1.9206848-1.0033989-2.6170654-1.6623459
	c-0.6963959-0.658947-1.2243042-1.4002647-1.583725-2.2239494c-0.3594208-0.8236809-0.5391388-1.7522011-0.5391388-2.7855492
	v-0.1572495c0-1.2130623,0.2845459-2.2988281,0.8536377-3.2572975s1.3590698-1.7072716,2.3699646-2.2464104
	c1.0108795-0.5391388,2.1752777-0.8087082,3.4931641-0.8087082c1.3628235,0,2.5159912,0.2695694,3.4594727,0.8087082
	c0.9434967,0.5391388,1.6623535,1.2954292,2.1565552,2.2688751c0.4942169,0.9734459,0.7488098,2.1191139,0.7637787,3.4370117
	v1.0782776h-3.5493164v-0.9659576c-0.0149841-1.0782776-0.269577-1.9281693-0.7637939-2.5496788
	c-0.4942017-0.6215057-1.1905975-0.9322586-2.0891571-0.9322586c-0.6140137,0-1.141922,0.1272964-1.583725,0.3818893
	c-0.4417877,0.2545929-0.7712555,0.602787-0.9884186,1.0445824c-0.2171478,0.4417915-0.3257294,0.9622116-0.3257294,1.5612564
	v0.2021751c0,0.5990448,0.0935974,1.1306953,0.2808075,1.5949516c0.1871948,0.4642601,0.5054321,0.8761024,0.9547272,1.235527
	c0.4492798,0.3594246,1.0632935,0.7038765,1.8420563,1.0333519l1.7297363,0.7188492
	c1.6473694,0.718853,2.8753967,1.6136742,3.6841125,2.6844635c0.8087006,1.0707893,1.2130585,2.3774529,1.2130585,3.9199867
	v0.1572495c0,1.3029213-0.2845459,2.4448471-0.8536377,3.4257774c-0.5690918,0.9809341-1.3628235,1.7447166-2.3811951,2.2913437
	S225.7844696,54.9158325,224.4066772,54.9158325z"/>
<g>
	<g>
		<path style="fill:#9C9C9C;" d="M70.0409164,32.6681786l-2.3175659-1.9691181
			c-0.0403442-0.046936-0.088562-0.0871582-0.1412354-0.1199951l-0.0004883-0.0004272v0.0001221
			c-0.2851562-0.1771851-0.7529907-0.168396-1.5470581-0.0612793l-29.8157959,4.022646
			c-1.4429932,0.1947021-1.5004883,0.260498-1.5004883,1.7165527l-0.000061,3.3943481
			c0,0.8228149,0.0549927,1.2932739,0.2838745,1.5472412l-0.0054321,0.0011597l0.0166016,0.0140991
			c0.0261841,0.0273438,0.0562744,0.052124,0.0872192,0.0740967l2.3555298,2.0013428l0.4161987-2.0819702l8.2039185-1.1068115
			c1.7454224-0.2354736,1.9641724-0.0441895,1.9636841,1.717041l-0.0011597,3.8909912
			c-0.0004272,1.4562378-0.0579834,1.5220337-1.5012207,1.7161255l-1.3991699,0.1881714l-15.2962036,2.0649414
			c-1.7451782,0.2355347-1.9638062,0.0444336-1.9638062-1.7165527V29.8060551c0-1.4556885,0.057373-1.5213013,1.4998779-1.7164917
			l23.9780273-3.2438354c1.4440918-0.1953735,1.5020142-0.2616577,1.4998779-1.7189331l-0.0036621-2.5160522l2.0737915-0.4428711
			l-2.4593506-2.0895386l-0.00354,0.0178223c-0.2814331-0.1966553-0.7561035-0.1879883-1.576416-0.0770264l-30.3369751,4.102417
			c-1.4430542,0.1951904-1.5005493,0.2609863-1.5,1.7171631l0.0119629,31.9305439
			c0.0003662,0.8838501,0.0562134,1.3711548,0.3319702,1.6083374l2.4586792,2.0888672l0.4298706-2.1503296l3.5958862-0.4835815
			l25.4794922-3.437561c1.4429932-0.1947021,1.5004883-0.260498,1.5004883-1.7165527V40.429409
			c0-1.4560547,0.0574951-1.5218506,1.5004883-1.7165527l10.1390381-1.3678589
			c1.4429932-0.1947021,1.5004883-0.260498,1.5004883-1.7165527v-2.5240479L70.0409164,32.6681786z"/>
		<path style="fill:#E8E8E8;" d="M70.4549561,34.3203316c0-1.7609253-0.2185669-1.9520264-1.9636841-1.7165527l-29.8157959,4.022644
			c-1.4429932,0.1947021-1.5004883,0.260498-1.5004883,1.7165527l-0.000061,3.3943481
			c0,1.7609253,0.2185669,1.9520264,1.9636841,1.7165527l9.3942375-1.2674026
			c1.7454529-0.2354851,1.9642181-0.0441971,1.9636879,1.7170715l-0.0011749,3.8909683
			c-0.0004272,1.4562378-0.0579834,1.5220337-1.5012207,1.7161255l-1.3991699,0.1881714L32.29879,51.7637177
			c-1.7451801,0.2355919-1.9638271,0.0444794-1.9638271-1.7165298V31.8923512c0-1.4556885,0.057373-1.5213013,1.4998779-1.7164917
			l23.9780254-3.2438354c1.4440918-0.1953735,1.5020142-0.2616577,1.4998779-1.7189331l-0.0049438-3.3937378
			c-0.0025635-1.7595825-0.22052-1.9497681-1.9642334-1.7139282l-30.3369732,4.102417
			c-1.4430542,0.1951904-1.5005493,0.2609863-1.5,1.7171631l0.0119629,31.9305439
			c0.0006714,1.7600098,0.218689,1.9505615,1.9629517,1.7160034l4.8534546-0.65271l25.4794903-3.437561
			c1.4429932-0.1947021,1.5004883-0.260498,1.5004883-1.7165527v-11.249012c0-1.456089,0.0575027-1.5218697,1.5005226-1.7165489
			l10.1390038-1.3678741c1.4429932-0.1947021,1.5004883-0.260498,1.5004883-1.7165527V34.3203316z"/>
		<g>
			<path style="fill:#454545;" d="M23.5066128,25.9220219c-0.0002441-0.6228027,0.017395-0.9829102,0.1422729-1.2159424
				l-2.4293823-2.1338501c-0.151123,0.2296753-0.1698608,0.5973511-0.1696167,1.2634888l0.0119629,31.9305439
				c0.0003662,0.8838501,0.0562134,1.3711548,0.3319702,1.6083374l2.4516602,2.0828857
				c-0.2717896-0.2386475-0.3265991-0.7259521-0.3269043-1.6049194L23.5066128,25.9220219z"/>
			<path style="fill:#454545;" d="M37.3237495,37.1136742l-2.4294434-2.1337891
				c-0.1574097,0.2287598-0.1760254,0.5982056-0.1760254,1.2738037l-0.000061,3.3943481
				c0,0.8228149,0.0549927,1.2932739,0.2838745,1.5472412l-0.0054321,0.0011597l0.0166016,0.0140991
				c0.0261841,0.0273438,0.0562744,0.052124,0.0872192,0.0740967l2.3555298,2.0013428l0.0012817-0.0064697
				c-0.227417-0.2544556-0.2823486-0.7244263-0.2823486-1.545166l0.000061-3.3943481
				C37.1750069,37.7076683,37.1933174,37.346035,37.3237495,37.1136742z"/>
			<polygon style="fill:#454545;" points="23.852499,59.4634666 23.8528042,59.4620628 23.8474941,59.4591942 			"/>
			<path style="fill:#454545;" d="M48.532856,42.1834984l-0.4931641,0.0665283l-0.0010376,3.4552002
				c-0.0002441,0.7545776-0.0203857,1.1325684-0.236084,1.3517456l2.413208,2.119812
				c0.2531128-0.2128296,0.2793579-0.5872803,0.2796021-1.3852539l0.0011597-3.8909912
				C50.4970894,42.1393089,50.2783394,41.9480247,48.532856,42.1834984z"/>
		</g>
	</g>
</g>
</svg>
