<svg width="20" height="20" viewBox="0 0 20 20" fill="none" xmlns="http://www.w3.org/2000/svg">
<g clip-path="url(#clip0_3212_40)">
<path d="M15.1532 1.78571C16.8469 1.78571 18.2343 3.16071 18.2343 4.83928V15.0357C18.2343 16.7143 16.8469 18.0893 15.1532 18.0893H4.86491C3.17121 18.0893 1.78383 16.7143 1.78383 15.0357V4.83928C1.78383 3.16071 3.17121 1.78571 4.86491 1.78571H15.1532ZM15.1532 0.321427H4.86491C2.34238 0.321427 0.28833 2.35714 0.28833 4.83928V15.0357C0.28833 17.5357 2.34238 19.5714 4.86491 19.5714H15.1532C17.6757 19.5714 19.7298 17.5357 19.7298 15.0357V4.83928C19.7298 2.33928 17.6757 0.30357 15.1532 0.30357V0.321427Z" fill="#A8A8A8"/>
<path d="M9.99998 6.28571C12.036 6.28571 13.6937 7.92857 13.6937 9.94643C13.6937 11.9643 12.036 13.6071 9.99998 13.6071C7.96394 13.6071 6.30629 11.9643 6.30629 9.94643C6.30629 7.92857 7.96394 6.28571 9.99998 6.28571ZM9.99998 4.80357C7.15313 4.80357 4.81079 7.125 4.81079 9.94643C4.81079 12.7679 7.15313 15.0893 9.99998 15.0893C12.8468 15.0893 15.1892 12.7679 15.1892 9.94643C15.1892 7.125 12.8468 4.80357 9.99998 4.80357Z" fill="#A8A8A8"/>
<path d="M15.2252 3.17857C14.5045 3.17857 13.9099 3.76786 13.9099 4.48214C13.9099 5.19643 14.5045 5.78571 15.2252 5.78571C15.9459 5.78571 16.5405 5.19643 16.5405 4.48214C16.5405 3.76786 15.9459 3.17857 15.2252 3.17857Z" fill="#A8A8A8"/>
</g>
<defs>
<clipPath id="clip0_3212_40">
<rect width="20" height="20" fill="white"/>
</clipPath>
</defs>
</svg>
