<svg width="209" height="38" viewBox="0 0 209 38" fill="none" xmlns="http://www.w3.org/2000/svg">
<path d="M14.8974 29.0626V26.0033H14.7261C13.87 27.8729 11.6439 29.4025 8.56171 29.4025C3.76715 29.4025 0 26.0033 0 19.8849V16.9956C0 11.0471 3.59592 7.47803 8.56171 7.47803C13.5275 7.47803 14.2124 9.1776 14.8974 11.0471H15.0686V7.64798H19.5207V29.0626C19.5207 35.181 15.0686 37.7304 9.41788 37.7304C3.76715 37.7304 0.684937 34.8411 0.342468 31.442H4.96579C5.30826 32.9716 7.0206 33.9913 9.58911 33.9913C12.1576 33.9913 14.8974 32.1218 14.8974 28.8926V29.0626ZM4.62332 17.6754V19.545C4.62332 23.284 6.84936 25.8334 9.93158 25.8334C13.0138 25.8334 14.8974 23.284 14.8974 20.0548V17.1656C14.8974 13.9364 13.0138 11.387 9.93158 11.387C6.84936 11.387 4.62332 13.9364 4.62332 17.6754Z" fill="#898989"/>
<path d="M29.6235 17.1656C29.6235 11.2171 33.2194 7.47803 39.2126 7.47803C45.2058 7.47803 47.9456 10.8772 47.9456 14.6162H43.4935C43.3223 13.2566 42.2949 11.2171 39.2126 11.2171C36.1304 11.2171 34.2469 13.5965 34.2469 17.1656V20.2248C34.2469 23.9639 36.1304 26.1733 39.2126 26.1733C42.2949 26.1733 43.3223 24.8136 43.6647 23.1141H48.1168C48.1168 26.8531 45.2058 30.0823 39.2126 30.0823C33.2194 30.0823 29.6235 26.3432 29.6235 20.2248V16.9956V17.1656Z" fill="#898989"/>
<path d="M69.6923 17.3355V20.2248C69.6923 26.5132 65.5827 30.2522 59.9319 30.2522C54.2812 30.2522 50.1716 26.6831 50.1716 20.3947V17.5055C50.1716 11.557 54.2812 7.64795 59.9319 7.64795C65.5827 7.64795 69.6923 11.387 69.6923 17.5055V17.3355ZM54.7949 17.6754V20.0548C54.7949 23.7939 56.5073 26.5132 59.9319 26.5132C63.3566 26.5132 65.069 23.7939 65.069 20.0548V17.6754C65.069 13.9364 63.1854 11.217 59.9319 11.217C56.6785 11.217 54.7949 13.9364 54.7949 17.6754Z" fill="#898989"/>
<path d="M86.9869 11.2172H87.1582V0H91.7815V29.7425H87.3294V26.1734H87.1582C86.4732 28.3828 83.9047 29.9124 80.6513 29.9124C75.5143 29.9124 72.2608 26.3433 72.2608 20.5648V16.8257C72.2608 11.0472 75.6855 7.47811 80.6513 7.47811C85.6171 7.47811 86.1308 8.83776 86.9869 11.0472V11.2172ZM76.8841 17.6755V20.0549C76.8841 24.1339 78.7677 26.3433 82.0211 26.3433C85.2746 26.3433 87.1582 24.1339 87.1582 20.3948V16.9957C87.1582 13.5966 84.9321 11.3871 81.8499 11.3871C78.7677 11.3871 76.8841 13.5966 76.8841 17.6755Z" fill="#898989"/>
<path d="M95.2062 20.3947V17.5055C95.2062 11.217 99.3158 7.64795 104.624 7.64795C109.932 7.64795 114.042 11.387 114.042 17.5055V20.0548H99.6583V21.0745C99.6583 24.3037 101.542 26.5132 104.795 26.5132C108.049 26.5132 108.905 25.3235 109.247 23.9638H113.699C113.357 26.5132 110.788 30.0823 104.795 30.0823C98.8021 30.0823 95.0349 26.3432 95.0349 20.2248L95.2062 20.3947ZM109.761 16.9956V16.6557C109.761 13.4265 107.877 11.217 104.795 11.217C101.713 11.217 99.8295 13.4265 99.8295 16.6557V16.9956H109.59H109.761Z" fill="#898989"/>
<path d="M126.028 2.54932H130.48V7.98794H135.446V11.557H130.48V23.1141C130.48 25.4935 131.337 26.1733 133.905 26.1733C136.474 26.1733 135.446 26.1733 135.789 26.1733V29.7424C135.446 29.7424 133.905 29.9124 132.878 29.9124C127.569 29.9124 126.028 28.0429 126.028 23.624V11.557H122.604V7.98794H126.028V2.54932Z" fill="#898989"/>
<path d="M157.364 17.3355V20.2248C157.364 26.5132 153.255 30.2522 147.604 30.2522C141.953 30.2522 137.843 26.6831 137.843 20.3947V17.5055C137.843 11.557 141.953 7.64795 147.604 7.64795C153.255 7.64795 157.364 11.387 157.364 17.5055V17.3355ZM142.467 17.6754V20.0548C142.467 23.7939 144.179 26.5132 147.604 26.5132C151.028 26.5132 152.741 23.7939 152.741 20.0548V17.6754C152.741 13.9364 150.857 11.217 147.604 11.217C144.35 11.217 142.467 13.9364 142.467 17.6754Z" fill="#898989"/>
<path d="M179.453 17.3355V20.2248C179.453 26.5132 175.344 30.2522 169.693 30.2522C164.042 30.2522 159.761 26.6831 159.761 20.3947V17.5055C159.761 11.557 163.871 7.64795 169.693 7.64795C175.515 7.64795 179.453 11.387 179.453 17.5055V17.3355ZM164.385 17.6754V20.0548C164.385 23.7939 166.097 26.5132 169.522 26.5132C172.946 26.5132 174.659 23.7939 174.659 20.0548V17.6754C174.659 13.9364 172.775 11.217 169.522 11.217C166.268 11.217 164.385 13.9364 164.385 17.6754Z" fill="#898989"/>
<path d="M183.049 0H187.673V29.7425H183.049V0Z" fill="#898989"/>
<path d="M199.83 7.47803C204.625 7.47803 208.049 9.85742 208.049 13.7664H203.94C203.94 12.4068 202.57 10.8772 199.83 10.8772C197.09 10.8772 195.892 11.8969 195.892 13.9364C195.892 15.9759 198.974 16.6557 201.543 17.1656C205.652 17.8454 208.906 19.2051 208.906 23.284C208.906 27.363 205.31 30.2523 199.83 30.2523C194.351 30.2523 191.269 27.8729 191.269 23.9639H195.721C195.892 25.6634 197.262 26.8531 200.001 26.8531C202.741 26.8531 204.454 25.4935 204.454 23.7939C204.454 22.0943 201.885 21.0746 198.974 20.5647C194.864 19.7149 191.611 18.6952 191.611 14.2763C191.611 9.85742 195.721 7.47803 200.173 7.47803H199.83Z" fill="#898989"/>
</svg>
